<svg width="794" height="274" viewBox="0 0 794 274" fill="none" xmlns="http://www.w3.org/2000/svg">
<rect width="14" height="14" transform="matrix(0 1 1 0 133.744 69.9077)" fill="black"/>
<rect width="14" height="14" transform="matrix(0 1 1 0 114.073 90.189)" fill="black"/>
<rect width="14" height="14" transform="matrix(0 1 1 0 133.744 49.855)" fill="black"/>
<rect width="14" height="14" transform="matrix(0 1 1 0 114.073 30.2231)" fill="black"/>
<rect width="14" height="14" transform="matrix(0 1 1 0 93.7444 10)" fill="black"/>
<rect width="14" height="14" transform="matrix(0 1 1 0 73.5447 10)" fill="black"/>
<rect width="14" height="14" transform="matrix(0 1 1 0 53.7444 10)" fill="black"/>
<rect width="14" height="14" transform="matrix(0 1 1 0 14 69.9077)" fill="black"/>
<rect width="14" height="14" transform="matrix(0 1 1 0 14 49.855)" fill="black"/>
<rect width="14" height="14" transform="matrix(0 1 1 0 14 90.189)" fill="black"/>
<rect width="14" height="14" transform="matrix(0 1 1 0 34.2124 109.908)" fill="black"/>
<rect width="14" height="14" transform="matrix(0 1 1 0 53.7444 130.125)" fill="black"/>
<rect width="14" height="14" transform="matrix(-1 -4.37114e-08 -4.37114e-08 1 227.744 130.125)" fill="black"/>
<rect width="14" height="14" transform="matrix(-1 -4.37114e-08 -4.37114e-08 1 248.088 109.908)" fill="black"/>
<rect width="14" height="14" transform="matrix(-1 -4.37114e-08 -4.37114e-08 1 267.744 90.189)" fill="black"/>
<rect width="14" height="14" transform="matrix(-1 -4.37114e-08 -4.37114e-08 1 267.744 69.9077)" fill="black"/>
<rect width="14" height="14" transform="matrix(-1 -4.37114e-08 -4.37114e-08 1 267.744 49.855)" fill="black"/>
<rect width="14" height="14" transform="matrix(-1 -4.37114e-08 -4.37114e-08 1 207.744 10)" fill="black"/>
<rect width="14" height="14" transform="matrix(-1 -4.37114e-08 -4.37114e-08 1 227.744 10)" fill="black"/>
<rect width="14" height="14" transform="matrix(-1 -4.37114e-08 -4.37114e-08 1 187.744 69.9077)" fill="black"/>
<rect width="14" height="14" transform="matrix(-1 -4.37114e-08 -4.37114e-08 1 187.744 69.9077)" fill="black"/>
<rect width="14" height="14" transform="matrix(-1 -4.37114e-08 -4.37114e-08 1 207.744 69.9077)" fill="black"/>
<rect width="14" height="14" transform="matrix(-1 -4.37114e-08 -4.37114e-08 1 207.744 90.189)" fill="black"/>
<rect x="93.9697" y="69.9077" width="14" height="14" fill="black"/>
<rect x="73.4385" y="69.9077" width="14" height="14" fill="black"/>
<rect x="73.4385" y="90.189" width="14" height="14" fill="black"/>
<rect width="14" height="14" transform="matrix(1 4.37114e-08 4.37114e-08 -1 93.7444 203.908)" fill="black"/>
<rect width="14" height="14" transform="matrix(1 4.37114e-08 4.37114e-08 -1 93.7444 203.908)" fill="black"/>
<rect width="14" height="14" transform="matrix(1 4.37114e-08 4.37114e-08 -1 73.5447 203.908)" fill="black"/>
<rect width="14" height="14" transform="matrix(1 4.37114e-08 4.37114e-08 -1 73.5447 184.21)" fill="black"/>
<rect x="187.744" y="203.908" width="14" height="14" transform="rotate(180 187.744 203.908)" fill="black"/>
<rect x="187.744" y="203.908" width="14" height="14" transform="rotate(180 187.744 203.908)" fill="black"/>
<rect x="207.744" y="203.908" width="14" height="14" transform="rotate(180 207.744 203.908)" fill="black"/>
<rect x="207.744" y="184.21" width="14" height="14" transform="rotate(180 207.744 184.21)" fill="black"/>
<rect width="14" height="14" transform="matrix(-1 -4.37114e-08 -4.37114e-08 1 227.744 30.2231)" fill="black"/>
<rect width="14" height="14" transform="matrix(-1 -4.37114e-08 -4.37114e-08 1 248.088 49.855)" fill="black"/>
<rect width="14" height="14" transform="matrix(-1 -4.37114e-08 -4.37114e-08 1 48.2124 210.119)" fill="black"/>
<rect width="14" height="14" transform="matrix(-1 -4.37114e-08 -4.37114e-08 1 67.7444 230.203)" fill="black"/>
<rect x="234.088" y="210.119" width="14" height="14" fill="black"/>
<rect x="213.744" y="230.203" width="14" height="14" fill="black"/>
<rect x="53.7444" y="30.2231" width="14" height="14" fill="black"/>
<rect x="34.2124" y="49.855" width="14" height="14" fill="black"/>
<rect width="14" height="14" transform="matrix(-1 -4.37114e-08 -4.37114e-08 1 187.744 10)" fill="black"/>
<rect width="14" height="14" transform="matrix(-1 -4.37114e-08 -4.37114e-08 1 167.744 30.2231)" fill="black"/>
<rect width="14" height="14" transform="matrix(8.74228e-08 -1 -1 -8.74228e-08 147.744 224.119)" fill="black"/>
<rect width="14" height="14" transform="matrix(8.74228e-08 -1 -1 -8.74228e-08 167.744 244.203)" fill="black"/>
<rect width="14" height="14" transform="matrix(8.74228e-08 -1 -1 -8.74228e-08 187.744 264.125)" fill="black"/>
<rect width="14" height="14" transform="matrix(8.74228e-08 -1 -1 -8.74228e-08 207.744 264.125)" fill="black"/>
<rect width="14" height="14" transform="matrix(8.74228e-08 -1 -1 -8.74228e-08 227.744 264.125)" fill="black"/>
<rect width="14" height="14" transform="matrix(8.74228e-08 -1 -1 -8.74228e-08 267.744 203.908)" fill="black"/>
<rect width="14" height="14" transform="matrix(8.74228e-08 -1 -1 -8.74228e-08 267.744 224.119)" fill="black"/>
<rect width="14" height="14" transform="matrix(8.74228e-08 -1 -1 -8.74228e-08 267.744 184.21)" fill="black"/>
<rect width="14" height="14" transform="matrix(8.74228e-08 -1 -1 -8.74228e-08 248.088 163.908)" fill="black"/>
<rect width="14" height="14" transform="matrix(1 1.31134e-07 1.31134e-07 -1 34.2124 163.908)" fill="black"/>
<rect width="14" height="14" transform="matrix(1 1.31134e-07 1.31134e-07 -1 14 184.21)" fill="black"/>
<rect width="14" height="14" transform="matrix(1 1.31134e-07 1.31134e-07 -1 14 203.908)" fill="black"/>
<rect width="14" height="14" transform="matrix(1 1.31134e-07 1.31134e-07 -1 14 224.119)" fill="black"/>
<rect width="14" height="14" transform="matrix(1 1.31134e-07 1.31134e-07 -1 73.5447 264.125)" fill="black"/>
<rect width="14" height="14" transform="matrix(1 1.31134e-07 1.31134e-07 -1 53.7444 264.125)" fill="black"/>
<rect width="14" height="14" transform="matrix(1 1.31134e-07 1.31134e-07 -1 93.7444 264.125)" fill="black"/>
<rect width="14" height="14" transform="matrix(1 1.31134e-07 1.31134e-07 -1 114.073 244.203)" fill="black"/>
<rect width="14" height="14" transform="matrix(0 1 1 0 93.7444 109.908)" fill="black"/>
<rect width="14" height="14" transform="matrix(0 1 1 0 73.5447 130.125)" fill="black"/>
<rect width="14" height="14" transform="matrix(0 1 1 0 93.7444 149.908)" fill="black"/>
<rect width="14" height="14" transform="matrix(0 1 1 0 114.073 170.21)" fill="black"/>
<rect width="14" height="14" transform="matrix(0 1 1 0 133.744 189.908)" fill="black"/>
<rect width="14" height="14" transform="matrix(0 1 1 0 153.744 170.21)" fill="black"/>
<rect width="14" height="14" transform="matrix(0 1 1 0 173.744 149.908)" fill="black"/>
<rect width="14" height="14" transform="matrix(0 1 1 0 193.744 130.125)" fill="black"/>
<rect width="14" height="14" transform="matrix(0 1 1 0 173.744 109.908)" fill="black"/>
<rect width="14" height="14" transform="matrix(0 1 1 0 153.744 90.189)" fill="black"/>
<path d="M303.524 29.804H322.322C332.228 29.804 338.312 34.562 338.312 45.794V46.028C338.312 57.26 332.228 62.018 322.322 62.018H309.296V83H303.524V29.804ZM332.54 46.028V45.794C332.54 37.682 329.42 35.186 322.322 35.186H309.296V56.636H322.322C329.42 56.636 332.54 54.14 332.54 46.028ZM381.182 45.794V46.028C381.182 56.246 376.112 61.16 367.688 61.94V62.33L380.48 83H373.928L361.058 62.018H353.258V83H347.486V29.804H365.192C375.098 29.804 381.182 34.562 381.182 45.794ZM375.41 46.028V45.794C375.41 37.682 372.29 35.186 365.192 35.186H353.258V56.636H365.192C372.29 56.636 375.41 54.14 375.41 46.028ZM406.735 83.78H406.423C396.127 83.78 388.951 78.164 388.951 64.748V48.056C388.951 34.64 396.127 29.024 406.423 29.024H406.735C417.187 29.024 424.207 34.718 424.207 48.056V64.748C424.207 78.086 417.187 83.78 406.735 83.78ZM406.423 78.476H406.735C414.379 78.476 418.435 74.966 418.435 64.748V47.9C418.435 37.838 414.379 34.328 406.735 34.328H406.423C398.701 34.328 394.723 37.838 394.723 47.9V64.748C394.723 74.966 398.701 78.476 406.423 78.476ZM450.385 83.78H450.073C439.777 83.78 432.601 78.164 432.601 64.748V48.056C432.601 34.64 439.777 29.024 450.073 29.024H450.385C460.837 29.024 467.857 34.718 467.857 47.978H462.085C462.085 37.838 458.029 34.328 450.385 34.328H450.073C442.351 34.328 438.373 37.838 438.373 47.9V64.748C438.373 74.966 442.351 78.476 450.073 78.476H450.385C458.029 78.476 462.085 74.966 462.085 64.748H467.857C467.857 78.086 460.837 83.78 450.385 83.78ZM511.429 29.804V35.186H484.753V53.594H505.423V58.976H484.753V77.618H511.429V83H478.981V29.804H511.429ZM538.074 83.78H537.684C526.842 83.78 519.432 78.788 519.432 66.698H525.204C525.204 75.668 529.494 78.476 537.684 78.476H538.074C545.796 78.476 549.852 75.512 549.852 69.35C549.852 61.628 542.286 60.146 535.968 58.118C528.948 55.778 520.602 52.736 520.602 42.674C520.68 34.016 527.154 29.024 536.592 29.024H536.982C546.966 29.024 554.298 33.938 554.298 46.028H548.604C548.604 37.058 544.158 34.328 536.982 34.328H536.592C529.728 34.328 526.452 37.292 526.452 42.674C526.452 49.694 532.926 51.332 538.776 53.204C546.03 55.466 555.624 58.274 555.624 69.35C555.624 78.71 548.526 83.78 538.074 83.78ZM581.724 83.78H581.334C570.492 83.78 563.082 78.788 563.082 66.698H568.854C568.854 75.668 573.144 78.476 581.334 78.476H581.724C589.446 78.476 593.502 75.512 593.502 69.35C593.502 61.628 585.936 60.146 579.618 58.118C572.598 55.778 564.252 52.736 564.252 42.674C564.33 34.016 570.804 29.024 580.242 29.024H580.632C590.616 29.024 597.948 33.938 597.948 46.028H592.254C592.254 37.058 587.808 34.328 580.632 34.328H580.242C573.378 34.328 570.102 37.292 570.102 42.674C570.102 49.694 576.576 51.332 582.426 53.204C589.68 55.466 599.274 58.274 599.274 69.35C599.274 78.71 592.176 83.78 581.724 83.78ZM641.285 29.804V35.186H627.713V77.618H641.285V83H608.369V77.618H621.863V35.186H608.369V29.804H641.285ZM657.713 83H652.097V29.804H660.755L678.539 74.732H679.241V29.804H684.857V83H676.199L658.415 38.072H657.713V83ZM723.982 62.72H714.232V57.338H729.754V83H724.216V76.37H723.436C721.486 81.518 717.508 83.78 711.112 83.78H710.722C701.128 83.78 694.498 78.164 694.498 64.748V48.056C694.498 34.64 701.674 29.024 711.97 29.024H712.36C722.734 29.024 729.754 34.718 729.754 48.056H723.982C723.982 37.838 719.926 34.328 712.36 34.328H711.97C704.248 34.328 700.27 37.838 700.27 48.056V64.748C700.27 74.888 704.248 78.476 711.658 78.476H711.97C719.614 78.476 723.982 74.888 723.982 64.748V62.72ZM319.436 163.78H319.124C308.828 163.78 301.652 158.164 301.652 144.748V128.056C301.652 114.64 308.828 109.024 319.124 109.024H319.436C329.888 109.024 336.908 114.718 336.908 127.978H331.136C331.136 117.838 327.08 114.328 319.436 114.328H319.124C311.402 114.328 307.424 117.838 307.424 127.9V144.748C307.424 154.966 311.402 158.476 319.124 158.476H319.436C327.08 158.476 331.136 154.966 331.136 144.748H336.908C336.908 158.086 329.888 163.78 319.436 163.78ZM363.086 163.78H362.774C352.478 163.78 345.302 158.164 345.302 144.748V128.056C345.302 114.64 352.478 109.024 362.774 109.024H363.086C373.538 109.024 380.558 114.718 380.558 128.056V144.748C380.558 158.086 373.538 163.78 363.086 163.78ZM362.774 158.476H363.086C370.73 158.476 374.786 154.966 374.786 144.748V127.9C374.786 117.838 370.73 114.328 363.086 114.328H362.774C355.052 114.328 351.074 117.838 351.074 127.9V144.748C351.074 154.966 355.052 158.476 362.774 158.476ZM394.723 163H389.107V109.804H396.829L406.189 134.14H406.891L416.329 109.804H424.051V163H418.435V118.54H417.811L408.061 142.72H405.019L395.347 118.54H394.723V163ZM438.373 163H432.757V109.804H440.479L449.839 134.14H450.541L459.979 109.804H467.701V163H462.085V118.54H461.461L451.711 142.72H448.669L438.997 118.54H438.373V163ZM494.113 163.78H493.723C483.427 163.78 477.031 158.32 477.031 145.684V109.804H482.803V145.684C482.803 155.044 486.079 158.476 493.723 158.476H494.113C501.757 158.476 504.955 155.044 504.955 145.684V109.804H510.805V145.684C510.805 158.242 504.487 163.78 494.113 163.78ZM526.764 163H521.148V109.804H529.806L547.59 154.732H548.292V109.804H553.908V163H545.25L527.466 118.072H526.764V163ZM597.636 109.804V115.186H584.064V157.618H597.636V163H564.72V157.618H578.214V115.186H564.72V109.804H597.636ZM605.561 109.804H644.015V115.186H627.713V163H621.863V115.186H605.561V109.804ZM671.363 163H665.591V140.926L648.275 109.804H654.515L668.087 134.92H668.867L682.439 109.804H688.679L671.363 141.004V163ZM302.432 189.804H319.436C329.81 189.804 336.908 195.498 336.908 208.836V223.968C336.908 237.306 329.81 243 319.436 243H302.432V189.804ZM331.136 223.968V208.836C331.136 198.696 327.08 195.186 319.436 195.186H308.204V237.618H319.436C327.08 237.618 331.136 234.108 331.136 223.968ZM382.742 243H376.658L372.056 226.542H353.96L349.358 243H343.118L358.562 189.804H367.454L382.742 243ZM362.696 195.264L355.442 221.16H370.574L363.398 195.264H362.696ZM409.465 243H403.693V220.926L386.377 189.804H392.617L406.189 214.92H406.969L420.541 189.804H426.781L409.465 221.004V243ZM449.995 188.868H450.463C463.333 188.868 470.899 196.512 470.899 210.24V221.472C470.899 229.194 467.935 234.42 460.369 234.42H455.533L455.221 230.13H454.597C453.895 233.016 451.555 234.888 448.747 234.888H448.513C444.067 234.888 441.025 232.236 441.025 224.514V217.65C441.025 209.928 444.457 206.964 448.513 206.964H448.747C451.867 206.964 453.739 208.602 454.363 211.254H455.065V207.432H459.121V230.052H460.525C464.425 230.052 466.063 227.4 466.063 221.472V210.24C466.063 199.554 461.305 193.392 450.541 193.392H449.917C439.153 193.392 434.395 199.554 434.395 210.24V230.754C434.395 241.362 439.153 247.602 449.683 247.602H450.073C456.859 247.602 461.071 245.184 463.723 240.504L467.623 243C464.191 248.928 458.341 252.126 449.995 252.126H449.683C437.125 252.126 429.559 244.482 429.559 230.754V210.24C429.559 196.512 437.125 188.868 449.995 188.868ZM454.519 224.826V217.104C454.519 213.906 453.037 211.176 450.073 211.176H449.917C447.187 211.176 445.549 213.126 445.549 216.87V225.06C445.549 229.662 447.187 230.676 449.839 230.676H449.995C453.037 230.676 454.519 228.336 454.519 224.826ZM494.035 243.78H493.723C483.427 243.78 476.251 238.164 476.251 224.748V208.056C476.251 194.64 483.427 189.024 493.723 189.024H494.035C504.487 189.024 511.507 194.718 511.507 207.978H505.735C505.735 197.838 501.679 194.328 494.035 194.328H493.723C486.001 194.328 482.023 197.838 482.023 207.9V224.748C482.023 234.966 486.001 238.476 493.723 238.476H494.035C501.679 238.476 505.735 234.966 505.735 224.748H511.507C511.507 238.086 504.487 243.78 494.035 243.78ZM537.684 243.78H537.372C527.076 243.78 519.9 238.164 519.9 224.748V208.056C519.9 194.64 527.076 189.024 537.372 189.024H537.684C548.136 189.024 555.156 194.718 555.156 208.056V224.748C555.156 238.086 548.136 243.78 537.684 243.78ZM537.372 238.476H537.684C545.328 238.476 549.384 234.966 549.384 224.748V207.9C549.384 197.838 545.328 194.328 537.684 194.328H537.372C529.65 194.328 525.672 197.838 525.672 207.9V224.748C525.672 234.966 529.65 238.476 537.372 238.476ZM597.636 189.804V195.186H584.064V237.618H597.636V243H564.72V237.618H578.214V195.186H564.72V189.804H597.636ZM612.971 243H607.355V189.804H615.077L624.437 214.14H625.139L634.577 189.804H642.299V243H636.683V198.54H636.059L626.309 222.72H623.267L613.595 198.54H612.971V243ZM677.759 215.232V215.934C683.843 217.416 687.041 221.316 687.041 228.024V228.648C687.041 237.774 681.659 243 671.831 243H652.955V189.804H669.803C679.787 189.804 685.091 194.874 685.091 203.298V204.156C685.091 209.772 682.595 213.438 677.759 215.232ZM679.319 204.39V203.766C679.319 197.994 676.589 195.186 669.803 195.186H658.649V213.282H669.803C676.589 213.282 679.319 210.474 679.319 204.39ZM681.269 228.258V227.712C681.269 221.472 678.383 218.664 671.753 218.664H658.649V237.618H671.753C678.383 237.618 681.269 234.81 681.269 228.258ZM730.378 205.794V206.028C730.378 216.246 725.308 221.16 716.884 221.94V222.33L729.676 243H723.124L710.254 222.018H702.454V243H696.682V189.804H714.388C724.294 189.804 730.378 194.562 730.378 205.794ZM724.606 206.028V205.794C724.606 197.682 721.486 195.186 714.388 195.186H702.454V216.636H714.388C721.486 216.636 724.606 214.14 724.606 206.028ZM775.588 243H769.504L764.902 226.542H746.806L742.204 243H735.964L751.408 189.804H760.3L775.588 243ZM755.542 195.264L748.288 221.16H763.42L756.244 195.264H755.542Z" fill="black"/>
</svg>
